Coordinates
version=1
nRows=13
nColumns=40
inDegrees=yes

Units are S.I. units (second, meters, Newtons, ...)
If the header above contains a line with 'inDegrees', this indicates whether rotational values are in degrees (yes) or radians (no).

endheader
time	pelvis_tilt	pelvis_list	pelvis_rotation	pelvis_tx	pelvis_ty	pelvis_tz	hip_flexion_r	hip_adduction_r	hip_rotation_r	knee_angle_r	knee_angle_r_beta	ankle_angle_r	subtalar_angle_r	mtp_angle_r	hip_flexion_l	hip_adduction_l	hip_rotation_l	knee_angle_l	knee_angle_l_beta	ankle_angle_l	subtalar_angle_l	mtp_angle_l	lumbar_extension	lumbar_bending	lumbar_rotation	arm_flex_r	arm_add_r	arm_rot_r	elbow_flex_r	pro_sup_r	wrist_flex_r	wrist_dev_r	arm_flex_l	arm_add_l	arm_rot_l	elbow_flex_l	pro_sup_l	wrist_flex_l	wrist_dev_l
      1.85000000	     -4.88929950	     -3.88852040	     -4.96472971	      1.80608026	      0.89692761	      0.25406481	    -13.38090696	      4.23649210	     -3.48266982	     22.72947920	      0.39670425	     -4.29782889	    -11.61457711	      0.00000000	     31.01413331	     -7.74914716	    -18.60986810	     16.67574970	      0.29104674	     -2.33422358	      1.62760816	      0.00000000	     -1.82038956	      1.29037819	      0.75976891	     24.76111298	    -10.74446701	     24.76111298	     73.27544581	     45.05186137	      0.00000000	      0.00000000	     24.76111298	    -10.74446701	     24.76111298	     73.27544581	     45.05186137	      0.00000000	      0.00000000
      1.85500000	     -4.63353930	     -3.48021757	     -4.87082795	      1.81408678	      0.89743723	      0.25343965	    -13.22586158	      3.61945238	     -3.87564239	     24.07571269	      0.42020046	     -5.85870944	    -12.08844367	      0.00000000	     30.70393442	     -7.38214543	    -18.54737306	     17.57539299	      0.30674848	     -2.45146241	      0.98487409	      0.00000000	     -1.94183112	      0.78582507	      0.94397551	     24.77389862	    -10.74881715	     24.77389862	     73.27889543	     45.05157395	      0.00000000	      0.00000000	     24.77389862	    -10.74881715	     24.77389862	     73.27889543	     45.05157395	      0.00000000	      0.00000000
      1.86000000	     -4.43266542	     -3.03988723	     -4.76414635	      1.82208991	      0.89787649	      0.25279354	    -12.91084161	      2.95048926	     -4.37562676	     25.59367137	      0.44669383	     -7.43971483	    -12.66427529	      0.00000000	     30.43008153	     -6.96359797	    -18.46013559	     18.43124605	      0.32168593	     -2.53556376	      0.39799797	      0.00000000	     -1.98293159	      0.26108711	      1.12552609	     24.78881765	    -10.75389114	     24.78881765	     73.28291475	     45.05124039	      0.00000000	      0.00000000	     24.78881765	    -10.75389114	     24.78881765	     73.28291475	     45.05124039	      0.00000000	      0.00000000
      1.86500000	     -4.36827794	     -2.51740412	     -4.62996533	      1.83012940	      0.89809708	      0.25217008	    -12.34330721	      2.17981608	     -5.01031130	     27.31944237	      0.47681422	     -8.96116376	    -13.23267716	      0.00000000	     30.27821205	     -6.43822783	    -18.36454262	     19.21094609	      0.33529426	     -2.58551016	     -0.16849309	      0.00000000	     -1.87206480	     -0.35379889	      1.32424936	     24.81209386	    -10.76180336	     24.81209386	     73.28917347	     45.05072368	      0.00000000	      0.00000000	     24.81209386	    -10.76180336	     24.81209386	     73.28917347	     45.05072368	      0.00000000	      0.00000000
      1.87000000	     -4.39136364	     -1.90845330	     -4.47354733	      1.83822551	      0.89806836	      0.25134852	    -11.51676513	      1.18404825	     -6.02914408	     29.36907870	      0.51258712	    -10.12275100	    -13.26817267	      0.00000000	     30.17846779	     -5.75571338	    -18.13463500	     19.91382458	      0.34756181	     -2.57287029	     -0.93928056	      0.00000000	     -1.59973110	     -1.01586324	      1.46895655	     24.88443297	    -10.78635969	     24.88443297	     73.30852613	     45.04914748	      0.00000000	      0.00000000	     24.88443297	    -10.78635969	     24.88443297	     73.30852613	     45.04914748	      0.00000000	      0.00000000
      1.87500000	     -4.16109728	     -1.51156051	     -4.32648743	      1.84615448	      0.89860364	      0.25055908	    -11.10340002	      0.50821329	     -6.58132337	     31.04469763	      0.54183219	    -11.93232219	    -13.99538861	      0.00000000	     29.79582307	     -5.28312499	    -17.94493291	     20.62003544	      0.35988751	     -2.37952750	     -1.50350828	      0.00000000	     -1.69028491	     -1.49721040	      1.55035871	     24.90407518	    -10.79301856	     24.90407518	     73.31375546	     45.04872694	      0.00000000	      0.00000000	     24.90407518	    -10.79301856	     24.90407518	     73.31375546	     45.04872694	      0.00000000	      0.00000000
      1.88000000	     -4.09702874	     -0.97870173	     -4.19036103	      1.85415156	      0.89884660	      0.24978562	    -10.39488537	     -0.34834893	     -7.21589130	     32.94042199	      0.57491882	    -13.62460300	    -14.75428175	      0.00000000	     29.53512786	     -4.65501836	    -17.79971692	     21.20846508	      0.37015754	     -2.20458598	     -2.09580580	      0.00000000	     -1.55577657	     -2.08218031	      1.62898877	     24.92804220	    -10.80113861	     24.92804220	     73.32012178	     45.04821805	      0.00000000	      0.00000000	     24.92804220	    -10.80113861	     24.92804220	     73.32012178	     45.04821805	      0.00000000	      0.00000000
      1.88500000	     -4.14413851	     -0.23593029	     -4.00512386	      1.86217287	      0.89878057	      0.24885182	     -9.40420253	     -1.58826514	     -8.25643602	     35.20902279	      0.61451337	    -14.80037838	    -14.89257829	      0.00000000	     29.29327076	     -3.69960627	    -17.48924081	     21.53974923	      0.37593954	     -2.11606266	     -2.98906577	      0.00000000	     -1.26691612	     -2.91260302	      1.60791131	     25.01290780	    -10.82984760	     25.01290780	     73.34253842	     45.04645273	      0.00000000	      0.00000000	     25.01290780	    -10.82984760	     25.01290780	     73.34253842	     45.04645273	      0.00000000	      0.00000000
      1.89000000	     -4.03005552	      0.26410167	     -3.89464742	      1.87004059	      0.89912740	      0.24807807	     -8.69186486	     -2.44621734	     -8.78920973	     37.13560619	      0.64813860	    -16.60755427	    -15.84727914	      0.00000000	     28.91082199	     -3.07412261	    -17.38149076	     22.00633880	      0.38408307	     -1.79877388	     -3.51619267	      0.00000000	     -1.20771908	     -3.47540889	      1.66140491	     25.03955388	    -10.83884653	     25.03955388	     73.34953376	     45.04591065	      0.00000000	      0.00000000	     25.03955388	    -10.83884653	     25.03955388	     73.34953376	     45.04591065	      0.00000000	      0.00000000
      1.89500000	     -4.00120659	      0.86546223	     -3.81992143	      1.87788449	      0.89932826	      0.24737324	     -7.79265370	     -3.47390716	     -9.36537635	     39.23318493	      0.68474825	    -18.18615368	    -16.65055587	      0.00000000	     28.54869936	     -2.33346205	    -17.30237591	     22.32099208	      0.38957480	     -1.50771217	     -4.09214295	      0.00000000	     -1.02989018	     -4.15794178	      1.73363578	     25.06977305	    -10.84904365	     25.06977305	     73.35744282	     45.04530275	      0.00000000	      0.00000000	     25.06977305	    -10.84904365	     25.06977305	     73.35744282	     45.04530275	      0.00000000	      0.00000000
      1.90000000	     -3.93904273	      1.47757576	     -3.74491161	      1.88565180	      0.89956215	      0.24663343	     -6.91002034	     -4.52686848	     -9.88412144	     41.33019955	      0.72134806	    -19.70538546	    -17.44862355	      0.00000000	     28.12721878	     -1.56000223	    -17.24893913	     22.58262816	      0.39414122	     -1.15029833	     -4.67050729	      0.00000000	     -0.90788984	     -4.81588233	      1.80721752	     25.09544441	    -10.85769917	     25.09544441	     73.36414179	     45.04479184	      0.00000000	      0.00000000	     25.09544441	    -10.85769917	     25.09544441	     73.36414179	     45.04479184	      0.00000000	      0.00000000
      1.90500000	     -3.94166066	      2.19069405	     -3.72634513	      1.89342981	      0.89971817	      0.24598207	     -5.88727569	     -5.73911462	    -10.39471685	     43.52082718	      0.75958173	    -21.04097851	    -18.19522383	      0.00000000	     27.67329350	     -0.67580570	    -17.23276020	     22.62401575	      0.39486356	     -0.90837313	     -5.22206375	      0.00000000	     -0.68643110	     -5.61606264	      1.89662909	     25.12709892	    -10.86836297	     25.12709892	     73.37237631	     45.04416900	      0.00000000	      0.00000000	     25.12709892	    -10.86836297	     25.12709892	     73.37237631	     45.04416900	      0.00000000	      0.00000000
      1.91000000	     -3.89510454	      2.90357021	     -3.70216583	      1.90112558	      0.89997279	      0.24529067	     -4.91059815	     -6.95610658	    -10.82876831	     45.66775030	      0.79705260	    -22.26424917	    -18.90236010	      0.00000000	     27.13582356	      0.23755977	    -17.21820363	     22.58519061	      0.39418594	     -0.64324813	     -5.76553617	      0.00000000	     -0.52521771	     -6.39087911	      1.98480461	     25.16115762	    -10.87982543	     25.16115762	     73.38120438	     45.04350760	      0.00000000	      0.00000000	     25.16115762	    -10.87982543	     25.16115762	     73.38120438	     45.04350760	      0.00000000	      0.00000000
